<?xml version="1.0" encoding="UTF-8"?>
<!-- Generator: Adobe Illustrator 26.0.0, SVG Export Plug-In . SVG Version: 6.00 Build 0)  -->
<svg xmlns="http://www.w3.org/2000/svg" xmlns:xlink="http://www.w3.org/1999/xlink" version="1.1" id="Vrstva_1" x="0px" y="0px" viewBox="0 0 1000 1000" style="enable-background:new 0 0 1000 1000;" xml:space="preserve">
<g>
	<path d="M99.3,712.8V63.5H161l184.4,431.2V63.5h75.3v649.2H363L176.2,269.5v443.2H99.3z"></path>
	<g>
		<path d="M189.1,924.1c-3.7-5.3-9.8-8.8-18.1-8.8c-8.7,0-18.7,5.2-18.7,16.5c0,11.2,9.3,14,19.1,17.2c12.4,4.1,26,8.1,26,25.7    c0,17.6-14.8,25.3-28.6,25.3c-10.7,0-21.3-4.3-27.7-13l7.7-5.7c3.8,6.2,10.9,11,20.1,11c9.1,0,19.5-5.7,19.5-17    c0-12.3-10.3-15.4-21.5-18.8c-11.7-3.6-23.6-8.7-23.6-24.6c0-17,15.1-24.2,28-24.2c11.8,0,20.6,5,24.8,10.7L189.1,924.1z"></path>
		<path d="M292,997.8h-8.9v-79.9h-29.4V910h67.7v7.9H292V997.8z"></path>
		<path d="M421.5,1000c-26.2,0-45.8-19.5-45.8-46.1c0-26.7,19.6-46.1,45.8-46.1c26.2,0,45.8,19.5,45.8,46.1    C467.3,980.5,447.7,1000,421.5,1000z M421.5,915.6c-22.6,0-36.3,17.9-36.3,38.3c0,20.5,13.8,38.2,36.3,38.2    c22.6,0,36.3-17.7,36.3-38.2C457.9,933.4,444.1,915.6,421.5,915.6z"></path>
		<path d="M544.4,997.8h-8.9V910h25.8c17.4,0,30,6.3,30,23.4c0,13-9.7,21.2-22.4,22.6l25.7,41.8h-10.9l-24.3-41h-14.9V997.8z     M544.4,949h15.5c14.3,0,22.4-5.2,22.4-15.6c0-11.5-8.8-15.8-22.1-15.8h-15.9V949z"></path>
		<path d="M668.4,989.8h47v7.9h-55.9V910h54.4v7.9h-45.5v30.3h42.5v7.8h-42.5V989.8z"></path>
	</g>
	<g>
		<path d="M675.1,409H748v-64.1h-15.9C703,366.4,682.6,391.9,675.1,409z"></path>
		<path d="M748,128.5V63.5H453.3v649.2h90.6V409h19.9c-0.2-27.6,7.5-48.9,16-64.1h-35.9V128.5H748z"></path>
	</g>
	<g>
		<path d="M790.4,532.7l21.4-12.7V389.3c-7.7-1.1-15-2.8-21.4-4.5V532.7z"></path>
		<path d="M492.2,754.9H56.8V21.6h733.5v277.2l21.4-14.6V0.2L35.4,0v0.2v776.1l455.1,0.1C490.1,768.2,490.8,761,492.2,754.9z"></path>
		<path d="M790.4,628.7v126.2H773c-4.9,7.1-11.6,14.5-18.7,21.5l57.4,0v-0.2v-161L790.4,628.7z"></path>
	</g>
	<path d="M950.9,173.4c-16.5-25.2-13.2-36.5-51-44.5c-15-3.2-37.3-1.9-65.1,7.5v85.1c7.5-4.7,15.1-9.2,22.7-13.3   c74.7-40.3,36.4,15.2,36.4,15.2s-35.3,47-126.6,117.7c0,0,24.5,40.6,77.8,24.8c53.3-15.8,103.4-88.2,113.1-127.1   C967.8,200.5,967.4,198.6,950.9,173.4z"></path>
	<path d="M744.1,627.6c31.6-20,70.7-43.9,119.7-72.8c0,0-25.6-19-35.5-15.7c-5.6,1.9-49.1,23.5-103.5,56.5   c-16.7-24.9-34-46-41.9-62.1c-16.2-32.8-63.7-108.7-15.2-163.3c27.9-31.4,61.9-67,99.9-99.3V170.3c-28.2,18.6-59.3,44.2-92.5,79   c-103.4,108.4-103.7,142.9-65.6,230.4c25.7,59,62.2,97.7,79.9,138.2c-32.9,21.3-67.5,45.7-98.9,71.7c-98,81.3-89.4,81.1-67.3,123.7   c22.1,42.6,112.3,18.4,156.8-11.1c44.4-29.5,92.1-53.4,83.5-117.4C760.9,664.6,753.5,645.5,744.1,627.6z M698.8,680.2   c-10.7,70.1-93.2,108.8-135.3,115.5c-42,6.6,9.4-54,38.5-71.9c17.8-11,39.5-29.1,97.6-67.4C700.3,663.9,700.1,671.8,698.8,680.2z"></path>
</g>
</svg>
